REM DIRINDEX 1\2\6,1\2\7,1\2\8,1\2\9,1\3\10,1\3\11,1\4\12,1\4\13,1\4\14,1\5\15,1\5\16,1\5\17
REM DIRNAME folder01,folder02,folder03,folder04,folder05,folder06,folder07,folder08,folder09,folder10,folder11,folder12,folder13,folder14,folder15,folder16,folder17
TITLE ""
FILE "1400_3_sec10_0950_0967.mp3" MP3
  TRACK 01 AUDIO
    TITLE "0:"
    INDEX 01 00:00:00
  TRACK 02 AUDIO
    TITLE "17:cjc029_6336"
    INDEX 01 00:00:15
  TRACK 03 AUDIO
    TITLE "0:"
    INDEX 01 00:02:57
  TRACK 04 AUDIO
    TITLE "16:cjc029_6337"
    INDEX 01 00:02:63
  TRACK 05 AUDIO
    TITLE "0:"
    INDEX 01 00:04:03
  TRACK 06 AUDIO
    TITLE "17:cjc029_6338"
    INDEX 01 00:04:64
  TRACK 07 AUDIO
    TITLE "0:"
    INDEX 01 00:05:69
  TRACK 08 AUDIO
    TITLE "16:cjc029_6339"
    INDEX 01 00:06:00
  TRACK 09 AUDIO
    TITLE "0:"
    INDEX 01 00:07:00
  TRACK 10 AUDIO
    TITLE "17:cjc029_6340"
    INDEX 01 00:07:58
  TRACK 11 AUDIO
    TITLE "0:"
    INDEX 01 00:08:73
  TRACK 12 AUDIO
    TITLE "16:cjc029_6341"
    INDEX 01 00:09:02
  TRACK 13 AUDIO
    TITLE "0:"
    INDEX 01 00:10:19
  TRACK 14 AUDIO
    TITLE "17:cjc029_6342"
    INDEX 01 00:11:03
  TRACK 15 AUDIO
    TITLE "0:"
    INDEX 01 00:13:69
  TRACK 16 AUDIO
    TITLE "16:cjc029_6343"
    INDEX 01 00:14:06
  TRACK 17 AUDIO
    TITLE "0:"
    INDEX 01 00:15:36
  TRACK 18 AUDIO
    TITLE "17:cjc029_6344"
    INDEX 01 00:16:18
  TRACK 19 AUDIO
    TITLE "0:"
    INDEX 01 00:17:06
  TRACK 20 AUDIO
    TITLE "16:cjc029_6345"
    INDEX 01 00:17:21
  TRACK 21 AUDIO
    TITLE "0:"
    INDEX 01 00:18:39
  TRACK 22 AUDIO
    TITLE "17:cjc029_6346"
    INDEX 01 00:19:26
  TRACK 23 AUDIO
    TITLE "0:"
    INDEX 01 00:20:26
  TRACK 24 AUDIO
    TITLE "16:cjc029_6347"
    INDEX 01 00:20:32
  TRACK 25 AUDIO
    TITLE "0:"
    INDEX 01 00:21:33
  TRACK 26 AUDIO
    TITLE "17:cjc029_6348"
    INDEX 01 00:22:17
  TRACK 27 AUDIO
    TITLE "0:"
    INDEX 01 00:23:04
  TRACK 28 AUDIO
    TITLE "16:cjc029_6349"
    INDEX 01 00:23:08
  TRACK 29 AUDIO
    TITLE "0:"
    INDEX 01 00:24:20
  TRACK 30 AUDIO
    TITLE "17:cjc029_6350"
    INDEX 01 00:25:05
  TRACK 31 AUDIO
    TITLE "0:"
    INDEX 01 00:27:08
  TRACK 32 AUDIO
    TITLE "16:cjc029_6351"
    INDEX 01 00:27:16
  TRACK 33 AUDIO
    TITLE "0:"
    INDEX 01 00:28:12
  TRACK 34 AUDIO
    TITLE "17:cjc029_6352"
    INDEX 01 00:28:68
  TRACK 35 AUDIO
    TITLE "0:"
    INDEX 01 00:29:72
  TRACK 36 AUDIO
    TITLE "16:cjc029_6353"
    INDEX 01 00:30:03
  TRACK 37 AUDIO
    TITLE "0:"
    INDEX 01 00:31:00
  TRACK 38 AUDIO
    TITLE "17:cjc029_6354"
    INDEX 01 00:31:63
  TRACK 39 AUDIO
    TITLE "0:"
    INDEX 01 00:32:66
  TRACK 40 AUDIO
    TITLE "16:cjc029_6355"
    INDEX 01 00:32:72
  TRACK 41 AUDIO
    TITLE "0:"
    INDEX 01 00:34:18
  TRACK 42 AUDIO
    TITLE "17:cjc029_6356"
    INDEX 01 00:35:00
  TRACK 43 AUDIO
    TITLE "0:"
    INDEX 01 00:36:15
  TRACK 44 AUDIO
    TITLE "16:cjc029_6357"
    INDEX 01 00:36:21
  TRACK 45 AUDIO
    TITLE "0:"
    INDEX 01 00:37:38
  TRACK 46 AUDIO
    TITLE "17:cjc029_6358"
    INDEX 01 00:38:26
  TRACK 47 AUDIO
    TITLE "0:"
    INDEX 01 00:39:35
  TRACK 48 AUDIO
    TITLE "16:cjc029_6359"
    INDEX 01 00:39:41
  TRACK 49 AUDIO
    TITLE "0:"
    INDEX 01 00:40:56
  TRACK 50 AUDIO
    TITLE "17:cjc029_6360"
    INDEX 01 00:41:44
  TRACK 51 AUDIO
    TITLE "0:"
    INDEX 01 00:42:59
  TRACK 52 AUDIO
    TITLE "16:cjc029_6361"
    INDEX 01 00:42:72
  TRACK 53 AUDIO
    TITLE "0:"
    INDEX 01 00:43:56
  TRACK 54 AUDIO
    TITLE "17:cjc029_6362"
    INDEX 01 00:44:52
  TRACK 55 AUDIO
    TITLE "0:"
    INDEX 01 00:45:69
  TRACK 56 AUDIO
    TITLE "16:cjc029_6363"
    INDEX 01 00:45:71
  TRACK 57 AUDIO
    TITLE "0:"
    INDEX 01 00:46:72
  TRACK 58 AUDIO
    TITLE "17:cjc029_6364"
    INDEX 01 00:47:56
  TRACK 59 AUDIO
    TITLE "0:"
    INDEX 01 00:48:69
  TRACK 60 AUDIO
    TITLE "16:cjc029_6365"
    INDEX 01 00:49:02
  TRACK 61 AUDIO
    TITLE "0:"
    INDEX 01 00:50:27
  TRACK 62 AUDIO
    TITLE "17:cjc029_6366"
    INDEX 01 00:51:09
  TRACK 63 AUDIO
    TITLE "0:"
    INDEX 01 00:52:57
  TRACK 64 AUDIO
    TITLE "16:cjc029_6367"
    INDEX 01 00:52:59
  TRACK 65 AUDIO
    TITLE "0:"
    INDEX 01 00:54:15
  TRACK 66 AUDIO
    TITLE "17:cjc029_6368"
    INDEX 01 00:54:72
  TRACK 67 AUDIO
    TITLE "0:"
    INDEX 01 00:56:06
  TRACK 68 AUDIO
    TITLE "16:cjc029_6369"
    INDEX 01 00:56:14
  TRACK 69 AUDIO
    TITLE "0:"
    INDEX 01 00:57:15
  TRACK 70 AUDIO
    TITLE "17:cjc029_6370"
    INDEX 01 00:57:74
  TRACK 71 AUDIO
    TITLE "0:"
    INDEX 01 00:59:08
  TRACK 72 AUDIO
    TITLE "16:cjc029_6371"
    INDEX 01 00:59:22
  TRACK 73 AUDIO
    TITLE "0:"
    INDEX 01 01:00:25
